<?xml version="1.0" encoding="UTF-8"?>
<svg id="Layer_2" data-name="Layer 2" xmlns="http://www.w3.org/2000/svg" viewBox="0 0 949.89 938.08">
  <defs>
    <style>
      .cls-1, .cls-2 {
        fill: #f7931e;
      }

      .cls-1, .cls-3 {
        stroke-width: 0px;
      }

      .cls-2 {
        font-family: Montserrat-Bold, Montserrat;
        font-size: 149.04px;
        font-weight: 700;
      }

      .cls-3 {
        fill: #1b1464;
      }
    </style>
  </defs>
  <g id="Layer_1-2" data-name="Layer 1">
    <path class="cls-3" d="M840.55,433.01c-48.31,0-89.4,31.49-103.82,75.02l-90.5-14.4c.33-4.54.49-9.12.49-13.72,0-50.19-19.55-97.39-55.04-132.88-17.79-17.79-38.52-31.57-61.09-40.9l31.96-90.38c8.09,1.91,16.51,2.93,25.16,2.93,60.29,0,109.34-49.05,109.34-109.34S647.99,0,587.7,0s-109.34,49.05-109.34,109.34c0,42.51,24.38,79.43,59.9,97.51l-32.2,91.1c-15.25-3.94-31.1-5.97-47.26-5.97-48.58,0-94.36,18.32-129.42,51.67l-132.64-132.64c13.78-18.29,21.96-41.02,21.96-65.64,0-60.29-49.05-109.34-109.34-109.34S0,85.08,0,145.37s49.05,109.34,109.34,109.34c24.53,0,47.19-8.12,65.45-21.81l133.89,133.89c-24.54,32.42-37.82,71.75-37.82,113.12,0,38.87,11.72,75.95,33.5,107.18l-87.68,71.65c-20.02-22.24-49.03-36.25-81.25-36.25-60.29,0-109.34,49.05-109.34,109.34s49.05,109.34,109.34,109.34,109.34-49.05,109.34-109.34c0-18.78-4.76-36.47-13.13-51.93l88.93-72.67c1.73,1.89,3.51,3.74,5.34,5.57,35.49,35.49,82.69,55.04,132.89,55.04,27.31,0,53.74-5.79,77.88-16.79l45.6,88.97c-27.56,19.86-45.52,52.24-45.52,88.73,0,60.29,49.05,109.34,109.34,109.34s109.34-49.05,109.34-109.34-49.05-109.34-109.34-109.34c-14.57,0-28.49,2.87-41.21,8.06l-45.48-88.76c11.54-7.34,22.37-16.01,32.27-25.91,26.04-26.04,43.49-58.37,50.95-93.57l88.95,14.15c-.24,2.96-.37,5.95-.37,8.97,0,60.29,49.05,109.34,109.34,109.34s109.34-49.05,109.34-109.34-49.05-109.34-109.34-109.34ZM503.21,109.34c0-46.59,37.9-84.49,84.49-84.49s84.49,37.91,84.49,84.49-37.9,84.49-84.49,84.49-84.49-37.91-84.49-84.49ZM178.94,193.23c-5.91,8.56-13.36,16-21.94,21.88-13.57,9.31-29.99,14.75-47.66,14.75-46.59,0-84.49-37.9-84.49-84.49S62.75,60.88,109.34,60.88s84.49,37.9,84.49,84.49c0,17.75-5.5,34.24-14.89,47.86ZM135.43,816.32c-46.59,0-84.49-37.9-84.49-84.49s37.9-84.49,84.49-84.49,84.49,37.9,84.49,84.49-37.9,84.49-84.49,84.49ZM646.1,744.25c46.59,0,84.49,37.91,84.49,84.49s-37.9,84.49-84.49,84.49-84.49-37.91-84.49-84.49,37.9-84.49,84.49-84.49ZM458.79,642.99c-89.92,0-163.08-73.16-163.08-163.08s73.16-163.07,163.08-163.07,163.07,73.16,163.07,163.07-73.16,163.08-163.07,163.08ZM840.55,626.84c-46.59,0-84.49-37.91-84.49-84.49,0-1.69.05-3.37.15-5.05.52-8.87,2.42-17.38,5.48-25.3,12.22-31.64,42.96-54.14,78.85-54.14,46.59,0,84.49,37.91,84.49,84.49s-37.9,84.49-84.49,84.49Z"/>
    <path class="cls-1" d="M925.04,542.35c0,46.59-37.9,84.49-84.49,84.49s-84.49-37.91-84.49-84.49c0-1.69.05-3.37.15-5.05.52-8.87,2.42-17.38,5.48-25.3,12.22-31.64,42.96-54.14,78.85-54.14,46.59,0,84.49,37.91,84.49,84.49Z"/>
    <path class="cls-1" d="M672.19,109.34c0,46.59-37.9,84.49-84.49,84.49s-84.49-37.91-84.49-84.49,37.9-84.49,84.49-84.49,84.49,37.91,84.49,84.49Z"/>
    <path class="cls-1" d="M219.92,731.83c0,46.59-37.9,84.49-84.49,84.49s-84.49-37.9-84.49-84.49,37.9-84.49,84.49-84.49,84.49,37.9,84.49,84.49Z"/>
    <g>
      <path class="cls-1" d="M458.48,630.07c-43.67,0-85.13-18.94-113.75-51.97-1.73-2-1.51-5.02.48-6.74,2-1.73,5.02-1.51,6.74.48,26.8,30.93,65.63,48.67,106.52,48.67,60.26,0,113.85-38.28,133.35-95.26.85-2.5,3.58-3.83,6.07-2.98,2.5.85,3.83,3.57,2.98,6.07-20.82,60.85-78.04,101.73-142.4,101.73Z"/>
      <path class="cls-1" d="M604.16,484.38c-2.64,0-4.78-2.14-4.78-4.78,0-15-2.34-29.76-6.96-43.87-.82-2.51.55-5.21,3.06-6.03,2.51-.82,5.21.55,6.03,3.06,4.94,15.08,7.44,30.84,7.44,46.85,0,2.64-2.14,4.78-4.78,4.78Z"/>
      <path class="cls-1" d="M317.43,520.98c-2.13,0-4.07-1.43-4.63-3.58-3.18-12.28-4.79-24.99-4.79-37.79,0-40.19,15.65-77.98,44.07-106.39,28.42-28.42,66.2-44.07,106.39-44.07,2.64,0,4.78,2.14,4.78,4.78s-2.14,4.78-4.78,4.78c-77.69,0-140.9,63.21-140.9,140.9,0,11.99,1.51,23.9,4.48,35.39.66,2.56-.87,5.16-3.43,5.83-.4.1-.8.15-1.2.15Z"/>
    </g>
    <path class="cls-1" d="M624.47,896.55c-.51,0-1.04-.08-1.55-.26-28.94-9.9-48.39-37.12-48.39-67.73,0-20.77,9.01-40.49,24.72-54.1,2-1.73,5.02-1.51,6.74.48,1.73,2,1.51,5.02-.48,6.74-13.61,11.8-21.42,28.88-21.42,46.88,0,26.52,16.85,50.1,41.92,58.68,2.5.85,3.83,3.57,2.98,6.07-.68,1.99-2.54,3.23-4.52,3.23Z"/>
    <path class="cls-1" d="M712.88,833.34c-2.64,0-4.78-2.14-4.78-4.78,0-34.19-27.81-62-62-62-5.28,0-10.52.66-15.58,1.97-2.56.67-5.16-.87-5.83-3.43-.66-2.56.88-5.16,3.43-5.83,5.84-1.51,11.89-2.28,17.97-2.28,39.46,0,71.57,32.1,71.57,71.57,0,2.64-2.14,4.78-4.78,4.78Z"/>
    <g>
      <path class="cls-1" d="M163.32,187.04c-.96,0-1.93-.29-2.77-.89-2.15-1.53-2.66-4.52-1.13-6.67,10.44-14.68,13.99-33.12,9.74-50.61-6.27-25.77-28.21-44.7-54.6-47.12-2.63-.24-4.57-2.57-4.33-5.2.24-2.63,2.57-4.57,5.2-4.33,30.46,2.78,55.79,24.64,63.02,54.38,4.91,20.18.81,41.47-11.24,58.41-.93,1.31-2.41,2.01-3.9,2.01Z"/>
      <path class="cls-1" d="M108.79,215.12c-12.97,0-25.73-3.55-37.09-10.47-16.33-9.94-27.81-25.65-32.32-44.22-.62-2.57.95-5.15,3.52-5.78,2.57-.62,5.15.95,5.78,3.52,3.91,16.09,13.86,29.7,28,38.31,14.15,8.61,30.8,11.2,46.89,7.29,5.13-1.25,10.06-3.13,14.67-5.6,2.33-1.25,5.23-.37,6.47,1.96,1.25,2.33.37,5.23-1.96,6.47-5.32,2.85-11.01,5.02-16.93,6.46-5.65,1.37-11.37,2.05-17.04,2.05Z"/>
    </g>
    <text class="cls-2" transform="translate(375.53 522.22)"><tspan x="0" y="0">AI</tspan></text>
  </g>
</svg>